<?xml version="1.0" encoding="UTF-8"?>
<svg version="1.1" xmlns="http://www.w3.org/2000/svg" width="50" height="50">
<path d="M0 0 C-0.58210456 4.19115285 -1.28156562 5.37542083 -4 9 C8.54 9.33 21.08 9.66 34 10 C34 11.32 34 12.64 34 14 C15.19 14.495 15.19 14.495 -4 15 C-2.68 16.65 -1.36 18.3 0 20 C0 21.32 0 22.64 0 24 C-4.28837741 23.49769006 -6.25890929 22.26421354 -9.25 19.1875 C-9.93578125 18.50042969 -10.6215625 17.81335938 -11.328125 17.10546875 C-13.06181652 14.92215162 -13.91257485 13.78667656 -14 11 C-12.671875 8.96484375 -12.671875 8.96484375 -10.75 6.9375 C-10.12609375 6.26589844 -9.5021875 5.59429687 -8.859375 4.90234375 C-8.24578125 4.27457031 -7.6321875 3.64679687 -7 3 C-6.26523438 2.13568359 -6.26523438 2.13568359 -5.515625 1.25390625 C-4 0 -4 0 0 0 Z " fill="#F8EDE2" transform="translate(15,13)"/>
</svg>
