<svg width="200" height="200" viewBox="0 0 200 200" fill="none" xmlns="http://www.w3.org/2000/svg">
<g clip-path="url(#clip0_195_179)">
<path d="M53.6493 -0.104454C54.2658 -0.107109 54.2658 -0.107109 54.8948 -0.109817C56.2742 -0.114769 57.6535 -0.114122 59.0329 -0.113478C60.0211 -0.115815 61.0092 -0.118473 61.9973 -0.121429C64.4042 -0.12762 66.811 -0.130065 69.2179 -0.130501C71.1747 -0.130873 73.1315 -0.132479 75.0882 -0.134955C80.6379 -0.141834 86.1875 -0.145439 91.7371 -0.144853C92.0362 -0.144822 92.3353 -0.14479 92.6435 -0.144758C92.9429 -0.144726 93.2424 -0.144694 93.551 -0.144661C98.4037 -0.144344 103.256 -0.151819 108.109 -0.162835C113.094 -0.174061 118.078 -0.179452 123.063 -0.178777C125.86 -0.178518 128.658 -0.180659 131.456 -0.189073C134.087 -0.196936 136.718 -0.196701 139.35 -0.191013C140.315 -0.190195 141.281 -0.192045 142.246 -0.196763C143.565 -0.202789 144.883 -0.19917 146.202 -0.193145C146.584 -0.197164 146.965 -0.201182 147.359 -0.205322C150.166 -0.176993 152.217 0.468133 154.378 2.28883C156.841 5.19011 157.495 7.22305 157.448 11.0474C157.445 11.4826 157.445 11.4826 157.442 11.9267C157.437 12.6386 157.43 13.3506 157.422 14.0625C157.898 14.0564 158.375 14.0502 158.866 14.0439C160.65 14.0226 162.433 14.0092 164.217 13.9981C164.986 13.9923 165.755 13.9843 166.524 13.9741C167.635 13.9597 168.746 13.9532 169.858 13.9481C170.197 13.942 170.535 13.936 170.884 13.9297C175.33 13.9285 178.735 15.3847 182.031 18.3594C184.913 21.7212 186.134 25.6866 185.938 30.0781C183.967 47.1172 174.176 64.5828 160.973 75.5249C160.569 75.8452 160.569 75.8452 160.156 76.1719C159.794 76.466 159.432 76.76 159.059 77.063C156.467 79.1336 153.78 80.9579 150.93 82.6566C150.679 82.8077 150.428 82.9589 150.169 83.1146C149.948 83.2452 149.727 83.3758 149.499 83.5104C147.963 84.596 147.066 85.7547 146.297 87.4588C146.126 87.8292 145.955 88.1996 145.779 88.5812C145.512 89.1699 145.512 89.1699 145.239 89.7705C143.516 93.4615 141.697 96.9904 139.453 100.391C139.303 100.619 139.153 100.848 138.998 101.084C136.76 104.444 134.246 107.446 131.436 110.341C130.884 110.912 130.341 111.492 129.799 112.073C125.552 116.513 120.691 119.53 115.234 122.266C114.922 128.145 116.548 133.502 120.41 138.013C123.475 141.184 126.622 142.91 130.764 144.308C131.056 144.411 131.349 144.514 131.65 144.62C131.911 144.707 132.173 144.794 132.442 144.883C133.533 145.498 134.064 146.233 134.766 147.266C134.954 148.375 134.954 148.375 134.943 149.603C134.943 150.295 134.943 150.295 134.943 151.001C134.935 151.495 134.927 151.989 134.918 152.498C134.916 153.007 134.914 153.515 134.912 154.04C134.906 155.388 134.89 156.735 134.873 158.083C134.857 159.461 134.85 160.838 134.842 162.215C134.825 164.915 134.799 167.614 134.766 170.312C135.074 170.304 135.383 170.296 135.701 170.288C137.123 170.255 138.544 170.235 139.966 170.215C140.694 170.195 140.694 170.195 141.438 170.175C146.34 170.124 150.065 171.333 153.735 174.634C156.694 177.672 157.478 181.515 157.501 185.606C157.503 185.91 157.506 186.214 157.508 186.527C157.512 187.168 157.514 187.808 157.516 188.449C157.52 189.424 157.532 190.399 157.544 191.375C157.547 191.999 157.549 192.624 157.55 193.248C157.555 193.537 157.56 193.827 157.565 194.125C157.557 195.988 157.265 197.262 156.25 198.828C155.093 199.881 154.353 200.147 152.799 200.149C152.417 200.152 152.036 200.155 151.642 200.159C151.224 200.156 150.806 200.154 150.375 200.151C149.93 200.154 149.485 200.156 149.027 200.158C147.53 200.163 146.033 200.161 144.537 200.158C143.466 200.159 142.395 200.163 141.324 200.166C138.714 200.173 136.105 200.173 133.495 200.171C131.374 200.169 129.252 200.17 127.131 200.172C126.83 200.172 126.528 200.173 126.217 200.173C125.604 200.174 124.991 200.174 124.379 200.175C118.629 200.18 112.88 200.178 107.13 200.173C101.869 200.17 96.6074 200.175 91.3459 200.184C85.9452 200.194 80.5445 200.197 75.1438 200.195C72.1109 200.193 69.0782 200.194 66.0454 200.201C63.4636 200.207 60.8818 200.207 58.3001 200.2C56.9825 200.197 55.6652 200.197 54.3477 200.202C52.92 200.207 51.4926 200.203 50.065 200.196C49.6477 200.2 49.2304 200.203 48.8004 200.207C45.9984 200.179 45.9984 200.179 44.4856 199.261C42.8832 197.467 42.8484 195.675 42.8513 193.355C42.8496 193.055 42.8479 192.755 42.8462 192.445C42.844 191.811 42.8438 191.177 42.8455 190.543C42.8467 189.585 42.8376 188.627 42.8276 187.669C42.8058 182.388 43.4656 178.223 47.2077 174.228C50.2159 171.411 53.486 170.255 57.576 170.274C58.2803 170.276 58.2803 170.276 58.9989 170.278C59.4856 170.281 59.9722 170.285 60.4737 170.288C60.9679 170.29 61.4621 170.292 61.9713 170.293C63.1892 170.298 64.4071 170.304 65.625 170.312C65.6216 170.034 65.6181 169.755 65.6145 169.468C65.5831 166.836 65.5594 164.204 65.5441 161.572C65.5359 160.219 65.5249 158.866 65.5071 157.513C65.4868 155.956 65.4793 154.399 65.4724 152.841C65.4644 152.358 65.4563 151.874 65.448 151.376C65.4469 147.09 65.4469 147.09 67.1875 145.312C68.0263 144.803 68.0263 144.803 68.9255 144.496C69.42 144.317 69.42 144.317 69.9245 144.135C70.4429 143.956 70.4429 143.956 70.9717 143.774C73.8671 142.693 76.3061 141.681 78.5156 139.453C78.8137 139.169 79.1118 138.885 79.419 138.593C83.9777 133.944 85.1444 128.525 85.5469 122.266C85.0998 122.145 85.0998 122.145 84.6436 122.021C79.2799 120.021 74.81 116.403 70.7031 112.5C70.5173 112.325 70.3314 112.15 70.1399 111.969C63.3252 105.507 58.8179 97.8595 54.5563 89.5508C54.3762 89.2016 54.196 88.8524 54.0104 88.4927C53.6996 87.8691 53.403 87.2381 53.1277 86.5981C52.2188 84.5241 51.2122 83.6693 49.2188 82.6416C48.6912 82.3471 48.1648 82.0506 47.6395 81.752C47.3785 81.6046 47.1174 81.4571 46.8485 81.3051C43.7554 79.4783 41.0268 77.0807 38.3972 74.6521C37.594 73.9145 36.7723 73.211 35.9375 72.5098C24.8176 62.7492 17.643 48.0184 14.6973 33.7158C14.6317 33.3981 14.5661 33.0804 14.4984 32.753C13.5908 28.0143 14.2161 23.7844 16.8488 19.6716C19.2133 16.6839 22.3981 14.6336 26.1719 14.0625C27.432 14.0105 28.6905 14.0171 29.9515 14.0244C30.3129 14.0249 30.6743 14.0255 31.0466 14.026C32.1968 14.0282 33.3469 14.0331 34.4971 14.0381C35.2786 14.0401 36.0601 14.0418 36.8416 14.0434C38.7538 14.0477 40.666 14.0545 42.5781 14.0625C42.5684 13.4231 42.5684 13.4231 42.5584 12.7709C42.5531 12.2045 42.548 11.6381 42.5431 11.0718C42.5383 10.7917 42.5336 10.5116 42.5288 10.223C42.51 7.36785 42.9985 5.16771 44.9585 3.00294C47.7891 0.361085 49.8629 -0.116373 53.6493 -0.104454ZM52.3438 9.37501C51.7923 34.0558 51.7923 34.0558 54.5655 58.4717C54.6645 58.9661 54.7635 59.4605 54.8655 59.9698C56.9829 70.1535 60.3374 79.8867 65.2344 89.0625C65.4741 89.5187 65.7138 89.9749 65.9607 90.445C71.5733 100.719 80.3064 110.77 91.7633 114.426C100.101 116.785 107.682 115.403 115.21 111.279C117.945 109.633 120.301 107.608 122.656 105.469C122.965 105.192 123.275 104.916 123.593 104.631C129.713 98.8539 133.982 91.1532 137.5 83.5938C137.628 83.3182 137.757 83.0426 137.889 82.7587C148.623 59.3419 147.656 34.7984 147.656 9.37501C116.203 9.37501 84.75 9.37501 52.3438 9.37501ZM25.0489 25.1709C23.712 26.783 23.7278 28.0377 23.8281 30.0781C24.0341 31.2997 24.3247 32.4922 24.6338 33.6914C24.7213 34.0323 24.8089 34.3731 24.899 34.7243C27.9278 46.1376 33.5275 56.0323 41.7969 64.4531C42.1664 64.8375 42.5356 65.222 42.9047 65.6067C44.8746 67.6613 44.8746 67.6613 47.2657 69.1406C47.2147 68.9 47.1637 68.6594 47.1112 68.4116C43.9606 53.4214 42.8678 38.7118 42.5781 23.4375C40.6811 23.4181 38.7842 23.404 36.8871 23.3946C36.2427 23.3907 35.5982 23.3854 34.9538 23.3786C34.0239 23.369 33.094 23.3646 32.164 23.3612C31.8791 23.3572 31.5941 23.3532 31.3006 23.349C28.9335 23.3485 26.912 23.5913 25.0489 25.1709ZM157.422 23.4375C157.414 23.8458 157.406 24.2541 157.398 24.6748C157.103 39.7898 155.875 54.3177 152.734 69.1406C165.126 61.5785 172.393 45.87 175.732 32.3242C176.407 29.2725 176.407 29.2725 175.708 26.294C174.376 24.5947 173.228 23.7352 171.094 23.4375C170.03 23.4056 168.976 23.3919 167.912 23.3994C167.612 23.3999 167.311 23.4005 167.001 23.401C166.046 23.4032 165.091 23.4081 164.136 23.4131C163.486 23.4151 162.836 23.4168 162.186 23.4184C160.598 23.4227 159.01 23.4295 157.422 23.4375ZM95.3125 125C95.095 126.257 94.8775 127.514 94.6533 128.809C93.6611 134.166 91.8469 139.806 87.8906 143.75C87.8906 144.008 87.8906 144.266 87.8906 144.531C96.1406 144.531 104.391 144.531 112.891 144.531C111.388 142.273 111.388 142.273 109.874 140.024C106.932 135.444 105.966 130.279 105.078 125C101.855 125 98.6328 125 95.3125 125ZM75 153.906C75 159.32 75 164.734 75 170.312C91.6289 170.312 108.258 170.312 125.391 170.312C125.391 164.898 125.391 159.484 125.391 153.906C108.762 153.906 92.1328 153.906 75 153.906ZM53.5157 181.641C52.1812 184.018 52.1812 184.018 52.7344 190.625C84.0586 190.625 115.383 190.625 147.656 190.625C148.246 184.554 148.246 184.554 145.852 180.551C144.394 179.809 142.982 179.916 141.369 179.927C140.824 179.924 140.824 179.924 140.267 179.92C139.047 179.915 137.827 179.918 136.606 179.92C135.732 179.918 134.858 179.915 133.984 179.912C131.608 179.905 129.232 179.906 126.856 179.908C124.874 179.909 122.892 179.907 120.909 179.904C115.966 179.899 111.022 179.9 106.079 179.905C101.786 179.909 97.4936 179.903 93.2011 179.894C88.7931 179.885 84.3851 179.881 79.9771 179.883C77.5025 179.885 75.028 179.884 72.5535 179.877C70.2264 179.871 67.8994 179.873 65.5723 179.88C64.7179 179.881 63.8634 179.88 63.009 179.876C61.8432 179.871 60.6777 179.875 59.5119 179.882C59.1732 179.879 58.8346 179.875 58.4857 179.871C56.3934 179.897 55.1515 180.212 53.5157 181.641Z" fill="#C0C0C0"/>
<path d="M101.562 26.9531C103.546 28.0078 104.394 29.0911 105.396 31.0791C105.53 31.3293 105.664 31.5794 105.802 31.8372C106.577 33.3141 107.175 34.7624 107.669 36.3556C108.664 39.3342 108.664 39.3342 110.547 41.7969C113.243 43.0188 116.259 43.133 119.179 43.2938C120.586 43.3752 121.948 43.5573 123.34 43.7744C123.7 43.8192 124.061 43.864 124.432 43.9102C126.101 44.3114 127.11 44.9576 128.052 46.3867C128.585 47.846 128.684 48.8475 128.516 50.3906C127.68 52.0938 126.463 53.2602 125.079 54.5197C124.636 54.9382 124.193 55.3573 123.75 55.777C123.058 56.431 122.363 57.0807 121.657 57.7202C118.893 60.0784 118.893 60.0784 117.338 63.2202C117.429 64.3434 117.659 65.3239 117.969 66.4063C118.101 67.1682 118.228 67.9312 118.349 68.6951C118.56 69.853 118.777 71.0098 118.995 72.1664C119.938 77.3416 119.938 77.3416 118.872 79.3945C117.604 80.9029 116.75 81.5753 114.763 81.752C113.067 81.6245 111.867 81.093 110.4 80.2979C110.002 80.0921 110.002 80.0921 109.595 79.8822C108.123 79.1177 106.674 78.3165 105.231 77.4979C104.788 77.2516 104.788 77.2516 104.337 77.0003C103.768 76.6819 103.202 76.3564 102.641 76.0232C102.381 75.8779 102.12 75.7326 101.852 75.5829C101.626 75.4514 101.4 75.3199 101.167 75.1844C99.3566 74.7544 97.4987 76.0141 95.9351 76.8417C95.5478 77.0454 95.1606 77.2491 94.7617 77.459C94.3634 77.6707 93.9651 77.8824 93.5547 78.1006C92.3884 78.7162 91.2219 79.3313 90.055 79.9458C89.2682 80.3603 88.4824 80.7766 87.6968 81.1935C86.3785 81.7962 85.4179 81.797 83.9844 81.6406C82.1942 80.8913 81.2601 79.8904 80.4688 78.125C80.2287 74.5074 81.2288 70.7097 81.8855 67.1716C81.9543 66.7982 82.023 66.4248 82.0938 66.04C82.1568 65.7062 82.2198 65.3723 82.2846 65.0284C82.3299 64.7096 82.3752 64.3909 82.4219 64.0625C82.4759 63.7501 82.53 63.4377 82.5857 63.1159C82.3294 61.5411 81.2422 60.7057 80.1285 59.6527C79.8953 59.4242 79.6621 59.1956 79.4219 58.9601C78.6767 58.231 77.9252 57.5088 77.1729 56.7871C76.4229 56.0617 75.6744 55.3348 74.928 54.6057C74.4634 54.1525 73.9965 53.7016 73.5273 53.2532C72.1028 51.8716 71.5382 51.1032 71.3867 49.0967C71.4948 47.5028 71.7802 46.6417 72.6562 45.3125C74.2178 44.1469 75.7604 43.8558 77.6505 43.6127C77.9388 43.5719 78.2271 43.5311 78.5242 43.4891C79.4404 43.3604 80.3573 43.2376 81.2744 43.1152C82.1927 42.9888 83.1108 42.8612 84.0289 42.733C84.5986 42.6538 85.1686 42.5759 85.7388 42.4995C86.4569 42.4018 87.1739 42.2951 87.8906 42.1875C88.3249 42.1644 88.3249 42.1644 88.768 42.1409C89.994 41.5253 90.37 40.1932 90.9042 38.9938C91.1021 38.571 91.1021 38.571 91.3039 38.1397C91.7259 37.2371 92.1405 36.3315 92.5537 35.4248C92.9657 34.5225 93.3794 33.6211 93.7994 32.7225C94.0607 32.1634 94.3174 31.6022 94.569 31.0386C95.9771 28.0249 98.1565 26.313 101.562 26.9531ZM99.6094 42.9688C99.4019 43.4018 99.1945 43.8348 98.9807 44.281C98.7022 44.8528 98.4234 45.4245 98.1445 45.9961C98.0086 46.2811 97.8726 46.5661 97.7325 46.8597C96.2592 49.861 96.2592 49.861 94.9219 50.7812C93.7465 51.1077 92.5666 51.267 91.3574 51.416C90.7213 51.4996 90.0854 51.586 89.4501 51.6754C89.1695 51.7105 88.889 51.7455 88.6 51.7817C87.7976 51.9104 87.7976 51.9104 87.1094 52.7344C87.4387 53.0546 87.768 53.3749 88.1073 53.7048C88.5397 54.1299 88.9721 54.5552 89.4043 54.9805C89.6213 55.191 89.8383 55.4014 90.062 55.6183C91.5587 57.097 92.512 58.1078 92.6758 60.2783C92.6169 62.8544 92.1683 65.4221 91.7969 67.9688C92.2027 67.7432 92.6086 67.5176 93.0267 67.2852C99.1116 63.997 99.1116 63.997 101.953 64.8438C104.112 65.7409 106.162 66.8342 108.203 67.9688C108.147 67.582 108.09 67.1953 108.032 66.7969C107.034 59.7955 107.034 59.7955 107.959 57.8613C109.39 55.9813 111.195 54.3713 112.891 52.7344C112.004 51.8473 111.762 51.8296 110.564 51.6891C110.258 51.6476 109.952 51.6061 109.637 51.5633C108.995 51.482 108.353 51.4046 107.711 51.3313C106.154 51.1133 105.252 50.9112 103.97 49.9542C102.972 48.6247 102.294 47.2959 101.636 45.7764C101.453 45.3704 101.453 45.3704 101.267 44.9562C100.971 44.2955 100.68 43.6324 100.391 42.9688C100.133 42.9688 99.875 42.9688 99.6094 42.9688Z" fill="#C0C0C0"/>
</g>
<defs>
<clipPath id="clip0_195_179">
<rect width="200" height="200" fill="white"/>
</clipPath>
</defs>
</svg>
