<svg width="163" height="150" viewBox="0 0 163 150" fill="none" xmlns="http://www.w3.org/2000/svg">
<mask id="path-1-outside-1_193_79" maskUnits="userSpaceOnUse" x="0" y="0.0612793" width="163" height="150" fill="black">
<rect fill="white" y="0.0612793" width="163" height="150"/>
<path d="M47 3.06127H76.2C79.9333 3.06127 82.8 4.12794 84.8 6.26128C86.9333 8.39461 88 11.9946 88 17.0613V19.0613H47.6C41.6 19.0613 36.6 19.7946 32.6 21.2613C28.7333 22.7279 25.8667 25.4613 24 29.4613C22.1333 33.3279 21.2 39.1279 21.2 46.8613V61.0613H74.8C82.2667 61.0613 87.1333 62.7946 89.4 66.2613C91.6667 69.7279 92.8 73.9946 92.8 79.0613V81.0613C92.8 95.7279 90.4 107.795 85.6 117.261C80.8 126.728 73.1333 133.728 62.6 138.261C52.0667 142.795 38.2667 145.061 21.2 145.061C16.2667 145.061 12.4667 144.261 9.8 142.661C7.26667 140.928 5.53333 138.861 4.6 136.461C3.66667 133.928 3.2 131.461 3.2 129.061H21.2C31.2 129.061 39.6 128.395 46.4 127.061C53.2 125.595 58.6667 122.995 62.8 119.261C67.0667 115.528 70.1333 110.261 72 103.461C73.8667 96.6613 74.8 87.8613 74.8 77.0613H15.4C12.4667 77.0613 9.66667 76.4613 7 75.2613C4.46667 74.0613 3.2 71.5279 3.2 67.6613V46.8613C3.2 31.7946 6.46667 20.7279 13 13.6613C19.6667 6.59461 31 3.06127 47 3.06127ZM132.722 132.861C132.722 129.128 133.589 125.928 135.322 123.261C137.189 120.595 140.789 119.261 146.122 119.261C151.322 119.261 154.855 120.595 156.722 123.261C158.722 125.928 159.722 129.128 159.722 132.861C159.722 136.595 158.722 139.795 156.722 142.461C154.855 144.995 151.322 146.261 146.122 146.261C140.789 146.261 137.189 144.995 135.322 142.461C133.589 139.795 132.722 136.595 132.722 132.861Z"/>
</mask>
<path d="M84.8 6.26128L82.6114 8.3131L82.6445 8.34839L82.6787 8.3826L84.8 6.26128ZM88 19.0613V22.0613H91V19.0613H88ZM32.6 21.2613L31.5672 18.4446L31.5516 18.4504L31.536 18.4563L32.6 21.2613ZM24 29.4613L26.7017 30.7655L26.7102 30.7478L26.7186 30.7299L24 29.4613ZM21.2 61.0613H18.2V64.0613H21.2V61.0613ZM89.4 66.2613L86.8891 67.903L89.4 66.2613ZM85.6 117.261L82.9243 115.905L85.6 117.261ZM62.6 138.261L61.414 135.506L62.6 138.261ZM9.8 142.661L8.10595 145.137L8.17979 145.188L8.25652 145.234L9.8 142.661ZM4.6 136.461L1.78497 137.498L1.79425 137.524L1.80399 137.549L4.6 136.461ZM3.2 129.061V126.061H0.200001V129.061H3.2ZM46.4 127.061L46.9772 130.005L47.0049 130L47.0325 129.994L46.4 127.061ZM62.8 119.261L60.8245 117.004L60.8067 117.019L60.7891 117.035L62.8 119.261ZM72 103.461L74.893 104.255L72 103.461ZM74.8 77.0613H77.8V74.0613H74.8V77.0613ZM7 75.2613L5.71574 77.9725L5.7422 77.985L5.76891 77.997L7 75.2613ZM13 13.6613L10.8178 11.6026L10.8074 11.6136L10.7972 11.6247L13 13.6613ZM47 6.06127H76.2V0.0612717H47V6.06127ZM76.2 6.06127C79.3472 6.06127 81.3258 6.94177 82.6114 8.3131L86.9886 4.20946C84.2742 1.31411 80.5194 0.0612717 76.2 0.0612717V6.06127ZM82.6787 8.3826C83.9701 9.67397 85 12.2808 85 17.0613H91C91 11.7084 89.8966 7.11524 86.9213 4.13995L82.6787 8.3826ZM85 17.0613V19.0613H91V17.0613H85ZM88 16.0613H47.6V22.0613H88V16.0613ZM47.6 16.0613C41.3802 16.0613 36.0031 16.8182 31.5672 18.4446L33.6328 24.0779C37.1969 22.771 41.8198 22.0613 47.6 22.0613V16.0613ZM31.536 18.4563C26.8863 20.22 23.454 23.5372 21.2815 28.1926L26.7186 30.7299C28.2794 27.3853 30.5804 25.2359 33.664 24.0663L31.536 18.4563ZM21.2983 28.157C19.1355 32.6372 18.2 38.9824 18.2 46.8613H24.2C24.2 39.2735 25.1312 34.0187 26.7017 30.7655L21.2983 28.157ZM18.2 46.8613V61.0613H24.2V46.8613H18.2ZM21.2 64.0613H74.8V58.0613H21.2V64.0613ZM74.8 64.0613C82.0495 64.0613 85.5033 65.7836 86.8891 67.903L91.9109 64.6195C88.7633 59.8056 82.4839 58.0613 74.8 58.0613V64.0613ZM86.8891 67.903C88.7718 70.7824 89.8 74.4467 89.8 79.0613H95.8C95.8 73.5425 94.5616 68.6735 91.9109 64.6195L86.8891 67.903ZM89.8 79.0613V81.0613H95.8V79.0613H89.8ZM89.8 81.0613C89.8 95.4266 87.4456 106.988 82.9243 115.905L88.2757 118.618C93.3544 108.602 95.8 96.0293 95.8 81.0613H89.8ZM82.9243 115.905C78.4683 124.693 71.3581 131.226 61.414 135.506L63.786 141.017C74.9085 136.23 83.1317 128.763 88.2757 118.618L82.9243 115.905ZM61.414 135.506C51.392 139.819 38.04 142.061 21.2 142.061V148.061C38.4933 148.061 52.7413 145.77 63.786 141.017L61.414 135.506ZM21.2 142.061C16.5208 142.061 13.3461 141.29 11.3435 140.089L8.25652 145.234C11.5872 147.232 16.0125 148.061 21.2 148.061V142.061ZM11.4941 140.185C9.36185 138.726 8.07099 137.11 7.39602 135.374L1.80399 137.549C2.99568 140.613 5.17148 143.129 8.10595 145.137L11.4941 140.185ZM7.41503 135.424C6.58889 133.182 6.2 131.066 6.2 129.061H0.200001C0.200001 131.857 0.74445 134.674 1.78497 137.498L7.41503 135.424ZM3.2 132.061H21.2V126.061H3.2V132.061ZM21.2 132.061C31.3166 132.061 39.9239 131.388 46.9772 130.005L45.8228 124.117C39.2761 125.401 31.0834 126.061 21.2 126.061V132.061ZM47.0325 129.994C54.2196 128.444 60.202 125.65 64.8109 121.488L60.7891 117.035C57.1313 120.339 52.1804 122.746 45.7675 124.129L47.0325 129.994ZM64.7755 121.519C69.5819 117.313 72.9087 111.484 74.893 104.255L69.107 102.667C67.358 109.038 64.5514 113.742 60.8245 117.004L64.7755 121.519ZM74.893 104.255C76.8577 97.0982 77.8 88.0034 77.8 77.0613H71.8C71.8 87.7191 70.8756 96.2244 69.107 102.667L74.893 104.255ZM74.8 74.0613H15.4V80.0613H74.8V74.0613ZM15.4 74.0613C12.8897 74.0613 10.5095 73.5508 8.23109 72.5255L5.76891 77.997C8.82387 79.3718 12.0436 80.0613 15.4 80.0613V74.0613ZM8.28426 72.5501C7.194 72.0336 6.2 70.8816 6.2 67.6613H0.200001C0.200001 72.1743 1.73934 76.0889 5.71574 77.9725L8.28426 72.5501ZM6.2 67.6613V46.8613H0.200001V67.6613H6.2ZM6.2 46.8613C6.2 32.1397 9.40511 21.9688 15.2028 15.6978L10.7972 11.6247C3.52823 19.4871 0.200001 31.4495 0.200001 46.8613H6.2ZM15.1822 15.7199C21.0068 9.54582 31.3135 6.06127 47 6.06127V0.0612717C30.6865 0.0612717 18.3265 3.64339 10.8178 11.6026L15.1822 15.7199ZM135.322 123.261L132.864 121.541L132.835 121.583L132.807 121.626L135.322 123.261ZM156.722 123.261L154.264 124.982L154.292 125.022L154.322 125.061L156.722 123.261ZM156.722 142.461L154.322 140.661L154.314 140.671L154.307 140.682L156.722 142.461ZM135.322 142.461L132.807 144.096L132.855 144.17L132.907 144.241L135.322 142.461ZM135.722 132.861C135.722 129.606 136.472 126.997 137.837 124.896L132.807 121.626C130.705 124.859 129.722 128.65 129.722 132.861H135.722ZM137.78 124.982C138.801 123.523 141.136 122.261 146.122 122.261V116.261C140.441 116.261 135.577 117.666 132.864 121.541L137.78 124.982ZM146.122 122.261C150.941 122.261 153.231 123.506 154.264 124.982L159.18 121.541C156.479 117.683 151.703 116.261 146.122 116.261V122.261ZM154.322 125.061C155.886 127.147 156.722 129.695 156.722 132.861H162.722C162.722 128.561 161.558 124.709 159.122 121.461L154.322 125.061ZM156.722 132.861C156.722 136.027 155.886 138.576 154.322 140.661L159.122 144.261C161.558 141.013 162.722 137.162 162.722 132.861H156.722ZM154.307 140.682C153.293 142.057 150.989 143.261 146.122 143.261V149.261C151.655 149.261 156.417 147.932 159.137 144.241L154.307 140.682ZM146.122 143.261C141.088 143.261 138.739 142.041 137.737 140.682L132.907 144.241C135.638 147.948 140.489 149.261 146.122 149.261V143.261ZM137.837 140.826C136.472 138.726 135.722 136.117 135.722 132.861H129.722C129.722 137.072 130.705 140.863 132.807 144.096L137.837 140.826Z" fill="#F8EDE2" mask="url(#path-1-outside-1_193_79)"/>
</svg>
