<svg width="165" height="151" viewBox="0 0 165 151" fill="none" xmlns="http://www.w3.org/2000/svg">
<mask id="path-1-outside-1_193_83" maskUnits="userSpaceOnUse" x="0" y="0.591797" width="165" height="150" fill="black">
<rect fill="white" y="0.591797" width="165" height="150"/>
<path d="M3.2 3.59179H83.6C87.3333 3.59179 90.5333 4.92512 93.2 7.59179C95.8667 10.1251 97.2 14.1251 97.2 19.5918L45.2 147.592C39.7333 147.592 35.7333 147.125 33.2 146.192C30.8 145.392 29.6 143.392 29.6 140.192C29.6 139.125 30.4 136.458 32 132.192C33.7333 127.792 36 122.258 38.8 115.592C41.6 108.925 44.7333 101.525 48.2 93.3918C51.6667 85.2585 55.2667 76.8585 59 68.1918C62.8667 59.5251 66.6 51.0585 70.2 42.7918C73.8 34.3918 77.0667 26.6585 80 19.5918H13C10.7333 19.5918 8.53334 18.8585 6.4 17.3918C4.26667 15.7918 3.2 12.5251 3.2 7.59179V3.59179ZM134.777 133.392C134.777 129.658 135.643 126.458 137.377 123.792C139.243 121.125 142.843 119.792 148.177 119.792C153.377 119.792 156.91 121.125 158.777 123.792C160.777 126.458 161.777 129.658 161.777 133.392C161.777 137.125 160.777 140.325 158.777 142.992C156.91 145.525 153.377 146.792 148.177 146.792C142.843 146.792 139.243 145.525 137.377 142.992C135.643 140.325 134.777 137.125 134.777 133.392Z"/>
</mask>
<path d="M3.2 3.59179V0.591789H0.200001V3.59179H3.2ZM93.2 7.59179L91.0787 9.7131L91.1059 9.7403L91.1338 9.76678L93.2 7.59179ZM97.2 19.5918L99.9794 20.7209L100.2 20.1779V19.5918H97.2ZM45.2 147.592V150.592H47.2194L47.9794 148.721L45.2 147.592ZM33.2 146.192L34.2371 143.377L34.1931 143.361L34.1487 143.346L33.2 146.192ZM32 132.192L29.2088 131.092L29.1997 131.115L29.191 131.138L32 132.192ZM38.8 115.592L36.0341 114.43L38.8 115.592ZM48.2 93.3918L50.9598 94.5681L48.2 93.3918ZM59 68.1918L56.2603 66.9695L56.2524 66.9871L56.2448 67.0049L59 68.1918ZM70.2 42.7918L72.9505 43.9896L72.954 43.9816L72.9574 43.9736L70.2 42.7918ZM80 19.5918L82.7708 20.7419L84.4935 16.5918H80V19.5918ZM6.4 17.3918L4.6 19.7918L4.64946 19.8289L4.70042 19.8639L6.4 17.3918ZM3.2 6.59179H83.6V0.591789H3.2V6.59179ZM83.6 6.59179C86.5287 6.59179 88.9682 7.60263 91.0787 9.7131L95.3213 5.47047C92.0985 2.24761 88.138 0.591789 83.6 0.591789V6.59179ZM91.1338 9.76678C92.966 11.5074 94.2 14.5477 94.2 19.5918H100.2C100.2 13.7026 98.7674 8.74287 95.2663 5.41679L91.1338 9.76678ZM94.4206 18.4627L42.4206 146.463L47.9794 148.721L99.9794 20.7209L94.4206 18.4627ZM45.2 144.592C39.8007 144.592 36.2473 144.117 34.2371 143.377L32.1629 149.007C35.2194 150.133 39.666 150.592 45.2 150.592V144.592ZM34.1487 143.346C33.5661 143.152 33.2717 142.88 33.0725 142.548C32.8376 142.157 32.6 141.442 32.6 140.192H26.6C26.6 142.141 26.9624 144.027 27.9275 145.635C28.9283 147.303 30.4339 148.432 32.2513 149.038L34.1487 143.346ZM32.6 140.192C32.6 140.24 32.5988 140.115 32.6834 139.72C32.7609 139.359 32.8872 138.875 33.0735 138.254C33.4459 137.012 34.0198 135.35 34.809 133.245L29.191 131.138C28.3802 133.301 27.7541 135.105 27.3265 136.53C26.9354 137.833 26.6 139.161 26.6 140.192H32.6ZM34.7912 133.291C36.5133 128.92 38.7706 123.409 41.5659 116.753L36.0341 114.43C33.2294 121.108 30.9534 126.664 29.2088 131.092L34.7912 133.291ZM41.5659 116.753C44.3635 110.093 47.4947 102.698 50.9598 94.5681L45.4402 92.2155C41.9719 100.353 38.8365 107.758 36.0341 114.43L41.5659 116.753ZM50.9598 94.5681C54.4248 86.4385 58.0233 78.042 61.7552 69.3787L56.2448 67.0049C52.51 75.6749 48.9085 84.0784 45.4402 92.2155L50.9598 94.5681ZM61.7397 69.4141C65.6098 60.7397 69.3468 52.2649 72.9505 43.9896L67.4495 41.594C63.8532 49.8521 60.1235 58.3105 56.2603 66.9695L61.7397 69.4141ZM72.9574 43.9736C76.5611 35.565 79.8323 27.8209 82.7708 20.7419L77.2292 18.4417C74.301 25.496 71.0389 33.2186 67.4426 41.61L72.9574 43.9736ZM80 16.5918H13V22.5918H80V16.5918ZM13 16.5918C11.4237 16.5918 9.8063 16.093 8.09959 14.9197L4.70042 19.8639C7.26037 21.6239 10.043 22.5918 13 22.5918V16.5918ZM8.2 14.9918C7.27151 14.2954 6.2 12.3383 6.2 7.59179H0.200001C0.200001 12.712 1.26183 17.2882 4.6 19.7918L8.2 14.9918ZM6.2 7.59179V3.59179H0.200001V7.59179H6.2ZM137.377 123.792L134.919 122.071L134.889 122.114L134.861 122.157L137.377 123.792ZM158.777 123.792L156.319 125.512L156.347 125.552L156.377 125.592L158.777 123.792ZM158.777 142.992L156.377 141.192L156.369 141.202L156.361 141.212L158.777 142.992ZM137.377 142.992L134.861 144.627L134.909 144.701L134.961 144.771L137.377 142.992ZM137.777 133.392C137.777 130.136 138.527 127.527 139.892 125.427L134.861 122.157C132.76 125.39 131.777 129.181 131.777 133.392H137.777ZM139.834 125.512C140.855 124.054 143.191 122.792 148.177 122.792V116.792C142.496 116.792 137.631 118.197 134.919 122.071L139.834 125.512ZM148.177 122.792C152.995 122.792 155.286 124.036 156.319 125.512L161.234 122.071C158.534 118.214 153.758 116.792 148.177 116.792V122.792ZM156.377 125.592C157.941 127.677 158.777 130.226 158.777 133.392H164.777C164.777 129.091 163.612 125.24 161.177 121.992L156.377 125.592ZM158.777 133.392C158.777 136.558 157.941 139.106 156.377 141.192L161.177 144.792C163.612 141.544 164.777 137.692 164.777 133.392H158.777ZM156.361 141.212C155.348 142.588 153.044 143.792 148.177 143.792V149.792C153.709 149.792 158.472 148.463 161.192 144.771L156.361 141.212ZM148.177 143.792C143.143 143.792 140.794 142.572 139.792 141.212L134.961 144.771C137.693 148.478 142.543 149.792 148.177 149.792V143.792ZM139.892 141.357C138.527 139.256 137.777 136.648 137.777 133.392H131.777C131.777 137.603 132.76 141.394 134.861 144.627L139.892 141.357Z" fill="#F8EDE2" mask="url(#path-1-outside-1_193_83)"/>
</svg>
