<svg width="281" height="153" viewBox="0 0 281 153" fill="none" xmlns="http://www.w3.org/2000/svg">
<mask id="path-1-outside-1_193_89" maskUnits="userSpaceOnUse" x="0" y="0.927734" width="281" height="152" fill="black">
<rect fill="white" y="0.927734" width="281" height="152"/>
<path d="M78.6 147.928H6.8C6.8 142.061 8.26667 137.928 11.2 135.528C14.1333 133.128 17.3333 131.928 20.8 131.928H40.8V49.9277C37.0667 54.4611 32.2667 58.0611 26.4 60.7277C20.5333 63.3944 14.1333 64.7277 7.2 64.7277C6.13334 64.7277 5.2 64.3277 4.4 63.5277C3.6 62.7277 3.2 61.7944 3.2 60.7277V52.7277C3.2 51.6611 3.6 50.7277 4.4 49.9277C5.2 49.1277 6.13334 48.7277 7.2 48.7277C13.6 48.7277 19 47.5277 23.4 45.1277C27.9333 42.7277 31.5333 39.7944 34.2 36.3277C36.8667 32.8611 38.8 29.4611 40 26.1277C41.3333 22.7944 42 20.1944 42 18.3277V5.92773H51.6C59.2 5.92773 63 9.46106 63 16.5277C63 18.6611 62.6 21.0611 61.8 23.7277C61 26.2611 59.9333 28.7944 58.6 31.3277V131.928H92.6C92.6 137.661 91.1333 141.794 88.2 144.328C85.2667 146.728 82.0667 147.928 78.6 147.928ZM200.522 3.92773C207.189 3.92773 211.455 5.59439 213.322 8.92772C215.322 12.1277 216.322 16.0611 216.322 20.7277V60.3277C216.322 75.6611 215.055 88.8611 212.522 99.9277C210.122 110.994 205.922 120.061 199.922 127.128C194.055 134.194 185.855 139.461 175.322 142.928C164.789 146.261 151.389 147.928 135.122 147.928C128.589 147.928 124.322 146.261 122.322 142.928C120.322 139.594 119.322 135.661 119.322 131.128V91.5277C119.322 76.1944 120.522 62.9944 122.922 51.9277C125.455 40.8611 129.655 31.7944 135.522 24.7277C141.522 17.6611 149.789 12.4611 160.322 9.12773C170.989 5.66106 184.389 3.92773 200.522 3.92773ZM198.322 60.3277V19.9277C184.989 19.9277 174.255 21.2611 166.122 23.9277C158.122 26.5944 151.989 30.7944 147.722 36.5277C143.589 42.2611 140.789 49.6611 139.322 58.7277C137.989 67.7944 137.322 78.7277 137.322 91.5277V131.928C150.655 131.928 161.322 130.594 169.322 127.928C177.455 125.261 183.589 121.061 187.722 115.328C191.989 109.594 194.789 102.194 196.122 93.1277C197.589 84.0611 198.322 73.1277 198.322 60.3277ZM250.644 135.728C250.644 131.994 251.51 128.794 253.244 126.128C255.11 123.461 258.71 122.128 264.044 122.128C269.244 122.128 272.777 123.461 274.644 126.128C276.644 128.794 277.644 131.994 277.644 135.728C277.644 139.461 276.644 142.661 274.644 145.328C272.777 147.861 269.244 149.128 264.044 149.128C258.71 149.128 255.11 147.861 253.244 145.328C251.51 142.661 250.644 139.461 250.644 135.728Z"/>
</mask>
<path d="M6.8 147.928H3.8V150.928H6.8V147.928ZM11.2 135.528L13.0997 137.85L11.2 135.528ZM40.8 131.928V134.928H43.8V131.928H40.8ZM40.8 49.9277H43.8V41.5657L38.4842 48.0206L40.8 49.9277ZM26.4 60.7277L27.6414 63.4588L26.4 60.7277ZM4.4 49.9277L6.52132 52.0491L6.52132 52.049L4.4 49.9277ZM23.4 45.1277L21.9963 42.4764L21.9798 42.4851L21.9634 42.494L23.4 45.1277ZM34.2 36.3277L36.5779 38.1569L34.2 36.3277ZM40 26.1277L37.2146 25.0136L37.1951 25.0622L37.1773 25.1116L40 26.1277ZM42 5.92773V2.92773H39V5.92773H42ZM61.8 23.7277L64.6608 24.6311L64.6673 24.6105L64.6735 24.5898L61.8 23.7277ZM58.6 31.3277L55.9452 29.9305L55.6 30.5865V31.3277H58.6ZM58.6 131.928H55.6V134.928H58.6V131.928ZM92.6 131.928H95.6V128.928H92.6V131.928ZM88.2 144.328L90.0997 146.65L90.1306 146.624L90.1609 146.598L88.2 144.328ZM78.6 144.928H6.8V150.928H78.6V144.928ZM9.8 147.928C9.8 142.464 11.1729 139.426 13.0997 137.85L9.30029 133.206C5.36049 136.429 3.8 141.658 3.8 147.928H9.8ZM13.0997 137.85C15.5505 135.844 18.0919 134.928 20.8 134.928V128.928C16.5748 128.928 12.7162 130.411 9.30029 133.206L13.0997 137.85ZM20.8 134.928H40.8V128.928H20.8V134.928ZM43.8 131.928V49.9277H37.8V131.928H43.8ZM38.4842 48.0206C35.0689 52.1677 30.6501 55.5005 25.1586 57.9966L27.6414 63.4588C33.8832 60.6217 39.0644 56.7544 43.1158 51.8349L38.4842 48.0206ZM25.1586 57.9966C19.7108 60.4729 13.7381 61.7277 7.2 61.7277V67.7277C14.5286 67.7277 21.3559 66.3159 27.6414 63.4588L25.1586 57.9966ZM7.2 61.7277C6.981 61.7277 6.79659 61.6817 6.52132 61.4064L2.27868 65.649C3.60341 66.9738 5.28567 67.7277 7.2 67.7277V61.7277ZM6.52132 61.4064C6.24606 61.1311 6.2 60.9467 6.2 60.7277H0.200005C0.200005 62.6421 0.953949 64.3243 2.27868 65.649L6.52132 61.4064ZM6.2 60.7277V52.7277H0.200005V60.7277H6.2ZM6.2 52.7277C6.2 52.5087 6.24606 52.3243 6.52132 52.0491L2.27868 47.8064C0.953949 49.1311 0.200005 50.8134 0.200005 52.7277H6.2ZM6.52132 52.049C6.79659 51.7738 6.981 51.7277 7.2 51.7277V45.7277C5.28567 45.7277 3.60341 46.4817 2.27868 47.8064L6.52132 52.049ZM7.2 51.7277C13.9662 51.7277 19.8904 50.4593 24.8366 47.7614L21.9634 42.494C18.1096 44.5961 13.2338 45.7277 7.2 45.7277V51.7277ZM24.8037 47.7791C29.6519 45.2124 33.6077 42.0181 36.5779 38.1569L31.8221 34.4986C29.459 37.5707 26.2148 40.2431 21.9963 42.4764L24.8037 47.7791ZM36.5779 38.1569C39.3914 34.4993 41.4961 30.8288 42.8227 27.1439L37.1773 25.1116C36.1039 28.0933 34.3419 31.2228 31.8221 34.4986L36.5779 38.1569ZM42.7854 27.2419C44.1542 23.8201 45 20.7843 45 18.3277H39C39 19.6044 38.5125 21.7687 37.2146 25.0136L42.7854 27.2419ZM45 18.3277V5.92773H39V18.3277H45ZM42 8.92773H51.6V2.92773H42V8.92773ZM51.6 8.92773C54.9896 8.92773 56.973 9.72011 58.1072 10.7747C59.2002 11.7911 60 13.5151 60 16.5277H66C66 12.4737 64.8998 8.8977 62.1928 6.38072C59.5271 3.90201 55.8104 2.92773 51.6 2.92773V8.92773ZM60 16.5277C60 18.2958 59.6667 20.3985 58.9265 22.8657L64.6735 24.5898C65.5333 21.7236 66 19.0264 66 16.5277H60ZM58.9393 22.8243C58.197 25.1747 57.2017 27.5432 55.9452 29.9305L61.2548 32.725C62.665 30.0456 63.803 27.3474 64.6608 24.6311L58.9393 22.8243ZM55.6 31.3277V131.928H61.6V31.3277H55.6ZM58.6 134.928H92.6V128.928H58.6V134.928ZM89.6 131.928C89.6 137.214 88.2475 140.323 86.2391 142.057L90.1609 146.598C94.0191 143.266 95.6 138.108 95.6 131.928H89.6ZM86.3003 142.006C83.8495 144.011 81.3081 144.928 78.6 144.928V150.928C82.8252 150.928 86.6839 149.444 90.0997 146.65L86.3003 142.006ZM213.322 8.92772L210.704 10.3935L210.74 10.4565L210.778 10.5177L213.322 8.92772ZM212.522 99.9277L209.598 99.2583L209.594 99.2751L209.59 99.2919L212.522 99.9277ZM199.922 127.128L197.635 125.186L197.624 125.199L197.614 125.211L199.922 127.128ZM175.322 142.928L176.227 145.788L176.243 145.783L176.26 145.777L175.322 142.928ZM122.922 51.9277L119.998 51.2583L119.994 51.2751L119.99 51.2919L122.922 51.9277ZM135.522 24.7277L133.235 22.786L133.224 22.7987L133.214 22.8115L135.522 24.7277ZM160.322 9.12773L161.227 11.9879L161.238 11.9844L161.249 11.9808L160.322 9.12773ZM198.322 19.9277H201.322V16.9277H198.322V19.9277ZM166.122 23.9277L165.187 21.077L165.18 21.0793L165.173 21.0817L166.122 23.9277ZM147.722 36.5277L145.315 34.7367L145.302 34.7549L145.288 34.7733L147.722 36.5277ZM139.322 58.7277L136.36 58.2487L136.357 58.2699L136.354 58.2913L139.322 58.7277ZM137.322 131.928H134.322V134.928H137.322V131.928ZM169.322 127.928L168.387 125.077L168.38 125.079L168.373 125.082L169.322 127.928ZM187.722 115.328L185.315 113.537L185.302 113.555L185.288 113.573L187.722 115.328ZM196.122 93.1277L193.16 92.6487L193.157 92.6699L193.154 92.6913L196.122 93.1277ZM200.522 6.92773C206.929 6.92773 209.676 8.55745 210.704 10.3935L215.939 7.46191C213.234 2.63134 207.448 0.927727 200.522 0.927727V6.92773ZM210.778 10.5177C212.417 13.1396 213.322 16.4904 213.322 20.7277H219.322C219.322 15.6317 218.227 11.1159 215.866 7.33773L210.778 10.5177ZM213.322 20.7277V60.3277H219.322V20.7277H213.322ZM213.322 60.3277C213.322 75.5087 212.067 88.4724 209.598 99.2583L215.446 100.597C218.044 89.2497 219.322 75.8134 219.322 60.3277H213.322ZM209.59 99.2919C207.272 109.982 203.253 118.57 197.635 125.186L202.209 129.069C208.591 121.553 212.972 112.006 215.454 100.564L209.59 99.2919ZM197.614 125.211C192.175 131.762 184.494 136.751 174.384 140.078L176.26 145.777C187.217 142.171 195.935 136.627 202.23 129.044L197.614 125.211ZM174.417 140.068C164.279 143.276 151.212 144.928 135.122 144.928V150.928C151.565 150.928 165.298 149.246 176.227 145.788L174.417 140.068ZM135.122 144.928C128.906 144.928 126.058 143.324 124.894 141.384L119.749 144.471C122.586 149.198 128.271 150.928 135.122 150.928V144.928ZM124.894 141.384C123.218 138.59 122.322 135.209 122.322 131.128H116.322C116.322 136.113 117.426 140.599 119.749 144.471L124.894 141.384ZM122.322 131.128V91.5277H116.322V131.128H122.322ZM122.322 91.5277C122.322 76.3384 123.512 63.3627 125.854 52.5636L119.99 51.2919C117.532 62.6261 116.322 76.0504 116.322 91.5277H122.322ZM125.846 52.5972C128.299 41.8825 132.326 33.2737 137.83 26.644L133.214 22.8115C126.984 30.3151 122.611 39.8396 119.998 51.2583L125.846 52.5972ZM137.809 26.6694C143.379 20.1091 151.127 15.1841 161.227 11.9879L159.417 6.26753C148.45 9.73805 139.665 15.213 133.235 22.786L137.809 26.6694ZM161.249 11.9808C171.517 8.64393 184.578 6.92773 200.522 6.92773V0.927727C184.199 0.927727 170.461 2.6782 159.395 6.27463L161.249 11.9808ZM201.322 60.3277V19.9277H195.322V60.3277H201.322ZM198.322 16.9277C184.827 16.9277 173.742 18.2723 165.187 21.077L167.057 26.7784C174.769 24.2498 185.15 22.9277 198.322 22.9277V16.9277ZM165.173 21.0817C156.698 23.9067 150.011 28.4271 145.315 34.7367L150.129 38.3188C153.966 33.1617 159.546 29.2821 167.071 26.7738L165.173 21.0817ZM145.288 34.7733C140.813 40.9809 137.88 48.8546 136.36 58.2487L142.283 59.2068C143.697 50.4675 146.364 43.5413 150.155 38.2821L145.288 34.7733ZM136.354 58.2913C134.993 67.5465 134.322 78.6342 134.322 91.5277H140.322C140.322 78.8212 140.984 68.0423 142.29 59.1642L136.354 58.2913ZM134.322 91.5277V131.928H140.322V91.5277H134.322ZM137.322 134.928C150.813 134.928 161.84 133.584 170.271 130.774L168.373 125.082C160.804 127.605 150.497 128.928 137.322 128.928V134.928ZM170.257 130.778C178.863 127.957 185.578 123.431 190.155 117.082L185.288 113.573C181.599 118.691 176.048 122.565 168.387 125.077L170.257 130.778ZM190.129 117.119C194.764 110.891 197.704 102.987 199.09 93.5642L193.154 92.6913C191.873 101.402 189.214 108.298 185.315 113.537L190.129 117.119ZM199.083 93.6068C200.583 84.3337 201.322 73.2308 201.322 60.3277H195.322C195.322 73.0247 194.594 83.7884 193.16 92.6487L199.083 93.6068ZM253.244 126.128L250.786 124.407L250.757 124.45L250.728 124.493L253.244 126.128ZM274.644 126.128L272.186 127.848L272.214 127.888L272.244 127.928L274.644 126.128ZM274.644 145.328L272.244 143.528L272.236 143.538L272.229 143.548L274.644 145.328ZM253.244 145.328L250.728 146.963L250.776 147.036L250.829 147.107L253.244 145.328ZM253.644 135.728C253.644 132.472 254.394 129.863 255.759 127.763L250.728 124.493C248.627 127.726 247.644 131.517 247.644 135.728H253.644ZM255.701 127.848C256.722 126.39 259.058 125.128 264.044 125.128V119.128C258.363 119.128 253.498 120.533 250.786 124.407L255.701 127.848ZM264.044 125.128C268.863 125.128 271.153 126.372 272.186 127.848L277.101 124.407C274.401 120.55 269.625 119.128 264.044 119.128V125.128ZM272.244 127.928C273.808 130.013 274.644 132.562 274.644 135.728H280.644C280.644 131.427 279.48 127.576 277.044 124.328L272.244 127.928ZM274.644 135.728C274.644 138.894 273.808 141.442 272.244 143.528L277.044 147.128C279.48 143.88 280.644 140.028 280.644 135.728H274.644ZM272.229 143.548C271.215 144.924 268.911 146.128 264.044 146.128V152.128C269.576 152.128 274.339 150.799 277.059 147.107L272.229 143.548ZM264.044 146.128C259.01 146.128 256.661 144.908 255.659 143.548L250.829 147.107C253.56 150.814 258.411 152.128 264.044 152.128V146.128ZM255.759 143.693C254.394 141.592 253.644 138.983 253.644 135.728H247.644C247.644 139.939 248.627 143.73 250.728 146.963L255.759 143.693Z" fill="#F8EDE2" mask="url(#path-1-outside-1_193_89)"/>
</svg>
