<svg width="162" height="150" viewBox="0 0 162 150" fill="none" xmlns="http://www.w3.org/2000/svg">
<mask id="path-1-outside-1_193_87" maskUnits="userSpaceOnUse" x="0" y="0.12207" width="162" height="150" fill="black">
<rect fill="white" y="0.12207" width="162" height="150"/>
<path d="M47.4 3.12206H76.4C83.7333 3.12206 88.5333 4.8554 90.8 8.32207C93.0667 11.7887 94.2 16.0554 94.2 21.1221V63.5221C94.2 78.7221 93.0667 91.5221 90.8 101.922C88.6667 112.322 84.8 120.722 79.2 127.122C73.7333 133.389 65.9333 137.989 55.8 140.922C45.8 143.722 32.9333 145.122 17.2 145.122C13.4667 145.122 10.5333 144.055 8.4 141.922C6.4 139.655 5.4 136.055 5.4 131.122V129.122H17.2C30 129.122 40.2667 128.189 48 126.322C55.8667 124.322 61.8 121.055 65.8 116.522C69.8 111.989 72.4667 105.855 73.8 98.1221C75.2667 90.3887 76.0667 80.7221 76.2 69.1221C70.8667 75.7887 63.7333 80.7887 54.8 84.1221C45.8667 87.4554 34.6 89.1221 21 89.1221C16.2 89.1221 12.5333 88.3221 10 86.7221C7.46667 85.1221 5.73333 82.9887 4.8 80.3221C4 77.5221 3.6 74.4554 3.6 71.1221V46.9221C3.6 31.8554 6.86667 20.7887 13.4 13.7221C20.0667 6.6554 31.4 3.12206 47.4 3.12206ZM77.2 19.1221H48C42 19.1221 37 19.8554 33 21.3221C29.1333 22.7887 26.2667 25.5221 24.4 29.5221C22.5333 33.3887 21.6 39.1887 21.6 46.9221V73.1221C34.4 73.1221 44.8667 71.6554 53 68.7221C61.2667 65.6554 67.3333 60.2554 71.2 52.5221C75.2 44.6554 77.2 33.5221 77.2 19.1221ZM131.722 132.922C131.722 129.189 132.589 125.989 134.322 123.322C136.189 120.655 139.789 119.322 145.122 119.322C150.322 119.322 153.855 120.655 155.722 123.322C157.722 125.989 158.722 129.189 158.722 132.922C158.722 136.655 157.722 139.855 155.722 142.522C153.855 145.055 150.322 146.322 145.122 146.322C139.789 146.322 136.189 145.055 134.322 142.522C132.589 139.855 131.722 136.655 131.722 132.922Z"/>
</mask>
<path d="M90.8 8.32207L88.2891 9.96381L88.2891 9.96382L90.8 8.32207ZM90.8 101.922L87.8688 101.283L87.8649 101.301L87.8612 101.319L90.8 101.922ZM79.2 127.122L76.9423 125.147L76.9393 125.15L79.2 127.122ZM55.8 140.922L56.6089 143.811L56.6216 143.807L56.6342 143.804L55.8 140.922ZM8.4 141.922L6.15049 143.907L6.21246 143.977L6.27868 144.043L8.4 141.922ZM5.4 129.122V126.122H2.4V129.122H5.4ZM48 126.322L48.7039 129.238L48.7216 129.234L48.7392 129.23L48 126.322ZM65.8 116.522L68.0495 118.507L65.8 116.522ZM73.8 98.1221L70.8525 97.5631L70.8479 97.5877L70.8436 97.6124L73.8 98.1221ZM76.2 69.1221L79.1998 69.1565L79.2999 60.4448L73.8574 67.248L76.2 69.1221ZM54.8 84.1221L53.7512 81.3114L54.8 84.1221ZM10 86.7221L11.602 84.1856H11.602L10 86.7221ZM4.8 80.3221L1.91543 81.1462L1.93949 81.2305L1.96843 81.3131L4.8 80.3221ZM13.4 13.7221L11.2178 11.6634L11.2075 11.6744L11.1972 11.6855L13.4 13.7221ZM77.2 19.1221H80.2V16.1221H77.2V19.1221ZM33 21.3221L31.9672 18.5054L31.9516 18.5112L31.936 18.5171L33 21.3221ZM24.4 29.5221L27.1017 30.8263L27.1102 30.8086L27.1186 30.7907L24.4 29.5221ZM21.6 73.1221H18.6V76.1221H21.6V73.1221ZM53 68.7221L54.0178 71.5441L54.0306 71.5395L54.0434 71.5348L53 68.7221ZM71.2 52.5221L68.5258 51.1623L68.5213 51.1714L68.5167 51.1804L71.2 52.5221ZM47.4 6.12206H76.4V0.122063H47.4V6.12206ZM76.4 6.12206C83.4909 6.12206 86.8956 7.83258 88.2891 9.96381L93.3109 6.68032C90.1711 1.87822 83.9758 0.122063 76.4 0.122063V6.12206ZM88.2891 9.96382C90.1718 12.8432 91.2 16.5075 91.2 21.1221H97.2C97.2 15.6033 95.9616 10.7343 93.3109 6.68032L88.2891 9.96382ZM91.2 21.1221V63.5221H97.2V21.1221H91.2ZM91.2 63.5221C91.2 78.5904 90.0749 91.1611 87.8688 101.283L93.7312 102.561C96.0584 91.883 97.2 78.8538 97.2 63.5221H91.2ZM87.8612 101.319C85.8066 111.335 82.1252 119.223 76.9423 125.147L81.4577 129.098C87.4748 122.221 91.5267 113.309 93.7388 102.525L87.8612 101.319ZM76.9393 125.15C71.9407 130.88 64.6937 135.224 54.9658 138.04L56.6342 143.804C67.1729 140.753 75.526 135.897 81.4607 129.094L76.9393 125.15ZM54.9911 138.033C45.3526 140.732 32.7851 142.122 17.2 142.122V148.122C33.0816 148.122 46.2475 146.712 56.6089 143.811L54.9911 138.033ZM17.2 142.122C14.0621 142.122 11.9647 141.244 10.5213 139.801L6.27868 144.043C9.10194 146.867 12.8712 148.122 17.2 148.122V142.122ZM10.6495 139.937C9.35831 138.474 8.4 135.757 8.4 131.122H2.4C2.4 136.353 3.4417 140.837 6.15049 143.907L10.6495 139.937ZM8.4 131.122V129.122H2.4V131.122H8.4ZM5.4 132.122H17.2V126.122H5.4V132.122ZM17.2 132.122C30.1123 132.122 40.6441 131.184 48.7039 129.238L47.2961 123.406C39.8893 125.194 29.8878 126.122 17.2 126.122V132.122ZM48.7392 129.23C56.9943 127.131 63.5345 123.624 68.0495 118.507L63.5505 114.537C60.0655 118.487 54.7391 121.513 47.2608 123.415L48.7392 129.23ZM68.0495 118.507C72.5117 113.45 75.3562 106.753 76.7564 98.6318L70.8436 97.6124C69.5771 104.958 67.0883 110.528 63.5505 114.537L68.0495 118.507ZM76.7475 98.6811C78.2584 90.7145 79.0653 80.8583 79.1998 69.1565L73.2002 69.0876C73.068 80.5859 72.275 90.063 70.8525 97.5631L76.7475 98.6811ZM73.8574 67.248C68.9012 73.4432 62.2375 78.1449 53.7512 81.3114L55.8488 86.9328C65.2292 83.4326 72.8321 78.1342 78.5426 70.9961L73.8574 67.248ZM53.7512 81.3114C45.2635 84.4784 34.3821 86.1221 21 86.1221V92.1221C34.8179 92.1221 46.4698 90.4324 55.8488 86.9328L53.7512 81.3114ZM21 86.1221C16.4568 86.1221 13.4479 85.3514 11.602 84.1856L8.39802 89.2585C11.6188 91.2927 15.9432 92.1221 21 92.1221V86.1221ZM11.602 84.1856C9.60397 82.9237 8.32709 81.3182 7.63158 79.331L1.96843 81.3131C3.13958 84.6593 5.32936 87.3204 8.39803 89.2585L11.602 84.1856ZM7.68457 79.4979C6.97128 77.0014 6.6 74.2161 6.6 71.1221H0.600002C0.600002 74.6947 1.02872 78.0428 1.91543 81.1462L7.68457 79.4979ZM6.6 71.1221V46.9221H0.600002V71.1221H6.6ZM6.6 46.9221C6.6 32.2005 9.80511 22.0296 15.6028 15.7586L11.1972 11.6855C3.92823 19.5478 0.600002 31.5103 0.600002 46.9221H6.6ZM15.5822 15.7807C21.4068 9.60661 31.7135 6.12206 47.4 6.12206V0.122063C31.0865 0.122063 18.7265 3.70418 11.2178 11.6634L15.5822 15.7807ZM77.2 16.1221H48V22.1221H77.2V16.1221ZM48 16.1221C41.7803 16.1221 36.4031 16.879 31.9672 18.5054L34.0328 24.1387C37.5969 22.8318 42.2198 22.1221 48 22.1221V16.1221ZM31.936 18.5171C27.2863 20.2808 23.854 23.598 21.6815 28.2534L27.1186 30.7907C28.6794 27.4461 30.9804 25.2967 34.064 24.1271L31.936 18.5171ZM21.6983 28.2178C19.5355 32.698 18.6 39.0432 18.6 46.9221H24.6C24.6 39.3343 25.5312 34.0795 27.1017 30.8263L21.6983 28.2178ZM18.6 46.9221V73.1221H24.6V46.9221H18.6ZM21.6 76.1221C34.5963 76.1221 45.4413 74.6373 54.0178 71.5441L51.9822 65.9C44.292 68.6735 34.2037 70.1221 21.6 70.1221V76.1221ZM54.0434 71.5348C63.0078 68.2093 69.6689 62.2924 73.8833 53.8637L68.5167 51.1804C64.9977 58.2184 59.5255 63.1015 51.9566 65.9094L54.0434 71.5348ZM73.8742 53.8818C78.1826 45.4086 80.2 33.7301 80.2 19.1221H74.2C74.2 33.314 72.2174 43.9022 68.5258 51.1623L73.8742 53.8818ZM134.322 123.322L131.864 121.602L131.835 121.644L131.807 121.687L134.322 123.322ZM155.722 123.322L153.264 125.042L153.292 125.083L153.322 125.122L155.722 123.322ZM155.722 142.522L153.322 140.722L153.314 140.732L153.307 140.742L155.722 142.522ZM134.322 142.522L131.807 144.157L131.855 144.231L131.907 144.302L134.322 142.522ZM134.722 132.922C134.722 129.666 135.472 127.057 136.837 124.957L131.807 121.687C129.705 124.92 128.722 128.711 128.722 132.922H134.722ZM136.78 125.042C137.801 123.584 140.136 122.322 145.122 122.322V116.322C139.441 116.322 134.577 117.727 131.864 121.602L136.78 125.042ZM145.122 122.322C149.941 122.322 152.231 123.567 153.264 125.042L158.18 121.602C155.479 117.744 150.703 116.322 145.122 116.322V122.322ZM153.322 125.122C154.886 127.208 155.722 129.756 155.722 132.922H161.722C161.722 128.621 160.558 124.77 158.122 121.522L153.322 125.122ZM155.722 132.922C155.722 136.088 154.886 138.637 153.322 140.722L158.122 144.322C160.558 141.074 161.722 137.223 161.722 132.922H155.722ZM153.307 140.742C152.293 142.118 149.989 143.322 145.122 143.322V149.322C150.655 149.322 155.417 147.993 158.137 144.302L153.307 140.742ZM145.122 143.322C140.088 143.322 137.739 142.102 136.737 140.742L131.907 144.302C134.638 148.009 139.489 149.322 145.122 149.322V143.322ZM136.837 140.887C135.472 138.787 134.722 136.178 134.722 132.922H128.722C128.722 137.133 129.705 140.924 131.807 144.157L136.837 140.887Z" fill="#F8EDE2" mask="url(#path-1-outside-1_193_87)"/>
</svg>
