<svg width="163" height="152" viewBox="0 0 163 152" fill="none" xmlns="http://www.w3.org/2000/svg">
<mask id="path-1-outside-1_193_81" maskUnits="userSpaceOnUse" x="0" y="0.32666" width="163" height="152" fill="black">
<rect fill="white" y="0.32666" width="163" height="152"/>
<path d="M48.6 61.3267H78.8C86.2667 61.3267 91.1333 63.06 93.4 66.5267C95.6667 69.9933 96.8 74.26 96.8 79.3267V81.3267C96.8 103.46 90.6 119.993 78.2 130.927C65.8 141.86 46.8 147.327 21.2 147.327C16.2667 147.327 12.4667 146.527 9.8 144.927C7.26667 143.327 5.53333 141.193 4.6 138.527C3.66667 135.727 3.2 132.66 3.2 129.327V84.9267C3.2 69.7267 4.26667 56.9267 6.4 46.5267C8.66667 36.1267 12.5333 27.7933 18 21.5267C23.6 15.1267 31.4 10.5267 41.4 7.72666C51.5333 4.79332 64.4667 3.32665 80.2 3.32665C83.9333 3.32665 86.8 4.39332 88.8 6.52665C90.9333 8.65999 92 12.26 92 17.3267V19.3267H80.2C68.2 19.3267 58.4 20.1933 50.8 21.9267C43.3333 23.5267 37.4667 26.26 33.2 30.1267C29.0667 33.9933 26.1333 39.1933 24.4 45.7267C22.8 52.26 21.8 60.46 21.4 70.3267C24.2 67.3933 27.8 65.1933 32.2 63.7267C36.6 62.1267 42.0667 61.3267 48.6 61.3267ZM78.8 77.3267H48.6C42.4667 77.3267 37.3333 77.9933 33.2 79.3267C29.2 80.66 26.2 83.26 24.2 87.1267C22.2 90.86 21.2 96.3267 21.2 103.527V131.327C34.5333 131.327 45.4 129.86 53.8 126.927C62.3333 123.86 68.6 118.46 72.6 110.727C76.7333 102.86 78.8 91.7267 78.8 77.3267ZM132.722 135.127C132.722 131.393 133.589 128.193 135.322 125.527C137.189 122.86 140.789 121.527 146.122 121.527C151.322 121.527 154.855 122.86 156.722 125.527C158.722 128.193 159.722 131.393 159.722 135.127C159.722 138.86 158.722 142.06 156.722 144.727C154.855 147.26 151.322 148.527 146.122 148.527C140.789 148.527 137.189 147.26 135.322 144.727C133.589 142.06 132.722 138.86 132.722 135.127Z"/>
</mask>
<path d="M93.4 66.5267L95.9109 64.8849L93.4 66.5267ZM78.2 130.927L76.2159 128.676L78.2 130.927ZM9.8 144.927L8.19802 147.463L8.22706 147.481L8.25652 147.499L9.8 144.927ZM4.6 138.527L1.75395 139.475L1.76103 139.497L1.76843 139.518L4.6 138.527ZM6.4 46.5267L3.46881 45.8878L3.46489 45.9058L3.46119 45.9238L6.4 46.5267ZM18 21.5267L15.7423 19.5511L15.7393 19.5546L18 21.5267ZM41.4 7.72666L42.2089 10.6156L42.2215 10.612L42.2342 10.6083L41.4 7.72666ZM88.8 6.52665L86.6114 8.57847L86.6445 8.61376L86.6787 8.64796L88.8 6.52665ZM92 19.3267V22.3267H95V19.3267H92ZM50.8 21.9267L51.4286 24.8601L51.4479 24.8559L51.4671 24.8515L50.8 21.9267ZM33.2 30.1267L31.1854 27.9037L31.1679 27.9196L31.1505 27.9358L33.2 30.1267ZM24.4 45.7267L21.5003 44.9574L21.4929 44.9851L21.4861 45.0131L24.4 45.7267ZM21.4 70.3267L18.4025 70.2051L18.0804 78.1491L23.5701 72.3981L21.4 70.3267ZM32.2 63.7267L33.1487 66.5727L33.1871 66.5599L33.2252 66.546L32.2 63.7267ZM78.8 77.3267H81.8V74.3267H78.8V77.3267ZM33.2 79.3267L32.279 76.4715L32.2651 76.476L32.2513 76.4806L33.2 79.3267ZM24.2 87.1266L26.8444 88.5433L26.8547 88.5242L26.8647 88.5049L24.2 87.1266ZM21.2 131.327H18.2V134.327H21.2V131.327ZM53.8 126.927L54.7891 129.759L54.8018 129.754L54.8146 129.75L53.8 126.927ZM72.6 110.727L69.9443 109.331L69.9398 109.34L69.9353 109.348L72.6 110.727ZM48.6 64.3267H78.8V58.3267H48.6V64.3267ZM78.8 64.3267C86.0495 64.3267 89.5033 66.049 90.8891 68.1684L95.9109 64.8849C92.7633 60.071 86.4838 58.3267 78.8 58.3267V64.3267ZM90.8891 68.1684C92.7718 71.0478 93.8 74.7121 93.8 79.3267H99.8C99.8 73.8079 98.5616 68.9389 95.9109 64.8849L90.8891 68.1684ZM93.8 79.3267V81.3267H99.8V79.3267H93.8ZM93.8 81.3267C93.8 102.906 87.7707 118.488 76.2159 128.676L80.1841 133.177C93.4293 121.498 99.8 104.014 99.8 81.3267H93.8ZM76.2159 128.676C64.596 138.922 46.4533 144.327 21.2 144.327V150.327C47.1467 150.327 67.004 144.798 80.1841 133.177L76.2159 128.676ZM21.2 144.327C16.5208 144.327 13.3461 143.556 11.3435 142.354L8.25652 147.499C11.5872 149.498 16.0125 150.327 21.2 150.327V144.327ZM11.402 142.39C9.40397 141.128 8.12709 139.523 7.43158 137.536L1.76843 139.518C2.93958 142.864 5.12936 145.525 8.19802 147.463L11.402 142.39ZM7.44605 137.578C6.62693 135.121 6.2 132.379 6.2 129.327H0.200001C0.200001 132.941 0.706402 136.333 1.75395 139.475L7.44605 137.578ZM6.2 129.327V84.9267H0.200001V129.327H6.2ZM6.2 84.9267C6.2 69.8503 7.25943 57.2665 9.33881 47.1295L3.46119 45.9238C1.2739 56.5869 0.200001 69.603 0.200001 84.9267H6.2ZM9.33119 47.1655C11.5197 37.1243 15.2066 29.2925 20.2607 23.4988L15.7393 19.5546C9.86009 26.2941 5.81369 35.129 3.46881 45.8878L9.33119 47.1655ZM20.2577 23.5022C25.3964 17.6294 32.6453 13.2934 42.2089 10.6156L40.5911 4.83776C30.1547 7.75995 21.8036 12.6239 15.7423 19.5511L20.2577 23.5022ZM42.2342 10.6083C51.9986 7.78181 64.6248 6.32665 80.2 6.32665V0.326653C64.3085 0.326653 51.0681 1.80484 40.5658 4.84496L42.2342 10.6083ZM80.2 6.32665C83.3472 6.32665 85.3258 7.20715 86.6114 8.57847L90.9886 4.47482C88.2742 1.57948 84.5194 0.326653 80.2 0.326653V6.32665ZM86.6787 8.64796C87.9701 9.93935 89 12.5462 89 17.3267H95C95 11.9738 93.8966 7.38063 90.9213 4.40533L86.6787 8.64796ZM89 17.3267V19.3267H95V17.3267H89ZM92 16.3267H80.2V22.3267H92V16.3267ZM80.2 16.3267C68.082 16.3267 58.0356 17.1994 50.1329 19.0018L51.4671 24.8515C58.7644 23.1873 68.318 22.3267 80.2 22.3267V16.3267ZM50.1714 18.9932C42.3515 20.6689 35.951 23.5849 31.1854 27.9037L35.2146 32.3496C38.9823 28.9351 44.3152 26.3844 51.4286 24.8601L50.1714 18.9932ZM31.1505 27.9358C26.5322 32.2562 23.3497 37.9865 21.5003 44.9574L27.2997 46.496C28.917 40.4001 31.6012 35.7304 35.2495 32.3175L31.1505 27.9358ZM21.4861 45.0131C19.8221 51.8076 18.8072 60.2223 18.4025 70.2051L24.3975 70.4482C24.7928 60.6976 25.7779 52.7124 27.3139 46.4403L21.4861 45.0131ZM23.5701 72.3981C25.9864 69.8667 29.1456 67.9071 33.1487 66.5727L31.2513 60.8806C26.4544 62.4796 22.4136 64.92 19.2299 68.2552L23.5701 72.3981ZM33.2252 66.546C37.1948 65.1026 42.2885 64.3267 48.6 64.3267V58.3267C41.8448 58.3267 36.0052 59.1508 31.1748 60.9073L33.2252 66.546ZM78.8 74.3267H48.6V80.3267H78.8V74.3267ZM48.6 74.3267C42.2721 74.3267 36.8046 75.0117 32.279 76.4715L34.121 82.1818C37.8621 80.975 42.6612 80.3267 48.6 80.3267V74.3267ZM32.2513 76.4806C27.4836 78.0698 23.8814 81.2127 21.5354 85.7484L26.8647 88.5049C28.5186 85.3072 30.9164 83.2502 34.1487 82.1727L32.2513 76.4806ZM21.5556 85.71C19.2121 90.0845 18.2 96.1348 18.2 103.527H24.2C24.2 96.5185 25.1879 91.6355 26.8444 88.5433L21.5556 85.71ZM18.2 103.527V131.327H24.2V103.527H18.2ZM21.2 134.327C34.7192 134.327 45.9545 132.844 54.7891 129.759L52.811 124.094C44.8455 126.876 34.3475 128.327 21.2 128.327V134.327ZM54.8146 129.75C64.028 126.439 70.9011 120.541 75.2647 112.105L69.9353 109.348C66.2989 116.379 60.6386 121.281 52.7854 124.103L54.8146 129.75ZM75.2557 112.122C79.7137 103.637 81.8 91.9441 81.8 77.3267H75.8C75.8 91.5092 73.753 102.083 69.9443 109.331L75.2557 112.122ZM135.322 125.527L132.864 123.806L132.835 123.848L132.807 123.892L135.322 125.527ZM156.722 125.527L154.264 127.247L154.292 127.287L154.322 127.327L156.722 125.527ZM156.722 144.727L154.322 142.927L154.314 142.937L154.307 142.947L156.722 144.727ZM135.322 144.727L132.807 146.362L132.855 146.435L132.907 146.506L135.322 144.727ZM135.722 135.127C135.722 131.871 136.472 129.262 137.837 127.162L132.807 123.892C130.705 127.125 129.722 130.916 129.722 135.127H135.722ZM137.78 127.247C138.801 125.789 141.136 124.527 146.122 124.527V118.527C140.441 118.527 135.577 119.931 132.864 123.806L137.78 127.247ZM146.122 124.527C150.941 124.527 153.231 125.771 154.264 127.247L159.18 123.806C156.479 119.949 151.703 118.527 146.122 118.527V124.527ZM154.322 127.327C155.886 129.412 156.722 131.961 156.722 135.127H162.722C162.722 130.826 161.558 126.974 159.122 123.727L154.322 127.327ZM156.722 135.127C156.722 138.293 155.886 140.841 154.322 142.927L159.122 146.527C161.558 143.279 162.722 139.427 162.722 135.127H156.722ZM154.307 142.947C153.293 144.322 150.989 145.527 146.122 145.527V151.527C151.655 151.527 156.417 150.198 159.137 146.506L154.307 142.947ZM146.122 145.527C141.088 145.527 138.739 144.307 137.737 142.947L132.907 146.506C135.638 150.213 140.489 151.527 146.122 151.527V145.527ZM137.837 143.092C136.472 140.991 135.722 138.382 135.722 135.127H129.722C129.722 139.338 130.705 143.129 132.807 146.362L137.837 143.092Z" fill="#F8EDE2" mask="url(#path-1-outside-1_193_81)"/>
</svg>
