<svg width="163" height="153" viewBox="0 0 163 153" fill="none" xmlns="http://www.w3.org/2000/svg">
<mask id="path-1-outside-1_193_85" maskUnits="userSpaceOnUse" x="0" y="0.856934" width="163" height="152" fill="black">
<rect fill="white" y="0.856934" width="163" height="152"/>
<path d="M3.6 109.657C3.6 96.5903 6.93334 86.7903 13.6 80.2569C10.4 78.9236 8.26667 76.9903 7.2 74.4569C6.13333 71.7903 5.6 68.7903 5.6 65.4569C5.6 51.0569 8.53333 39.3236 14.4 30.2569C20.2667 21.1903 28.6667 14.5236 39.6 10.2569C50.6667 5.99026 63.7333 3.85693 78.8 3.85693C86.1333 3.85693 90.8667 5.45693 93 8.65693C95.1333 11.7236 96.2 15.5903 96.2 20.2569V42.0569C96.2 48.5903 95.4667 54.2569 94 59.0569C92.6667 63.8569 90.4667 67.9236 87.4 71.2569C90.8667 72.4569 93.2 74.3903 94.4 77.0569C95.6 79.7236 96.2 82.7903 96.2 86.2569C96.2 100.524 93.0667 112.257 86.8 121.457C80.6667 130.524 71.9333 137.19 60.6 141.457C49.4 145.724 36.2 147.857 21 147.857C13.6667 147.857 8.93333 146.257 6.8 143.057C4.66667 139.857 3.6 135.99 3.6 131.457V109.657ZM22.6 68.8569H51.8C60.8667 68.8569 67.5333 67.1236 71.8 63.6569C76.0667 60.1903 78.2 53.3236 78.2 43.0569V19.8569C65.4 19.8569 54.8667 21.2569 46.6 24.0569C38.4667 26.8569 32.4 31.7903 28.4 38.8569C24.5333 45.9236 22.6 55.9236 22.6 68.8569ZM79.2 82.8569H50C40.9333 82.8569 33.9333 84.5903 29 88.0569C24.0667 91.5236 21.6 98.3903 21.6 108.657V131.857C34.4 131.857 45.0667 130.457 53.6 127.657C62.1333 124.857 68.5333 119.924 72.8 112.857C77.0667 105.657 79.2 95.6569 79.2 82.8569ZM132.722 135.657C132.722 131.924 133.589 128.724 135.322 126.057C137.189 123.39 140.789 122.057 146.122 122.057C151.322 122.057 154.855 123.39 156.722 126.057C158.722 128.724 159.722 131.924 159.722 135.657C159.722 139.39 158.722 142.59 156.722 145.257C154.855 147.79 151.322 149.057 146.122 149.057C140.789 149.057 137.189 147.79 135.322 145.257C133.589 142.59 132.722 139.39 132.722 135.657Z"/>
</mask>
<path d="M13.6 80.2569L15.6998 82.3996L18.9344 79.2296L14.7538 77.4877L13.6 80.2569ZM7.2 74.4569L4.41457 75.5711L4.42461 75.5962L4.4351 75.6211L7.2 74.4569ZM14.4 30.2569L16.9187 31.8867L14.4 30.2569ZM39.6 10.2569L38.5208 7.45774L38.5094 7.4622L39.6 10.2569ZM93 8.65693L90.5039 10.321L90.5203 10.3457L90.5373 10.3701L93 8.65693ZM94 59.0569L91.131 58.1803L91.1197 58.217L91.1094 58.254L94 59.0569ZM87.4 71.2569L85.1922 69.2258L82.0929 72.5945L86.4187 74.0919L87.4 71.2569ZM94.4 77.0569L91.6642 78.288L94.4 77.0569ZM86.8 121.457L84.3206 119.768L84.3152 119.776L86.8 121.457ZM60.6 141.457L59.543 138.649L59.532 138.653L60.6 141.457ZM6.8 143.057L9.29615 141.393L6.8 143.057ZM22.6 68.8569H19.6V71.8569H22.6V68.8569ZM71.8 63.6569L69.9082 61.3286H69.9082L71.8 63.6569ZM78.2 19.8569H81.2V16.8569H78.2V19.8569ZM46.6 24.0569L45.6376 21.2155L45.6305 21.2179L45.6235 21.2203L46.6 24.0569ZM28.4 38.8569L25.7892 37.3791L25.7786 37.3979L25.7682 37.4169L28.4 38.8569ZM79.2 82.8569H82.2V79.8569H79.2V82.8569ZM29 88.0569L27.2752 85.6024L29 88.0569ZM21.6 131.857H18.6V134.857H21.6V131.857ZM53.6 127.657L54.5353 130.507L53.6 127.657ZM72.8 112.857L75.3682 114.408L75.3746 114.397L75.3809 114.386L72.8 112.857ZM6.6 109.657C6.6 97.0682 9.80727 88.1742 15.6998 82.3996L11.5002 78.1143C4.05939 85.4063 0.600002 96.1123 0.600002 109.657H6.6ZM14.7538 77.4877C12.0813 76.3741 10.6513 74.923 9.96491 73.2928L4.4351 75.6211C5.88202 79.0576 8.71875 81.4731 12.4462 83.0262L14.7538 77.4877ZM9.98543 73.3428C9.08136 71.0826 8.6 68.4691 8.6 65.4569H2.6C2.6 69.1115 3.18531 72.4979 4.41457 75.5711L9.98543 73.3428ZM8.6 65.4569C8.6 51.4468 11.4549 40.3307 16.9187 31.8867L11.8813 28.6272C5.61177 38.3164 2.6 50.667 2.6 65.4569H8.6ZM16.9187 31.8867C22.4134 23.3949 30.2901 17.1104 40.6906 13.0517L38.5094 7.4622C27.0432 11.9368 18.12 18.9856 11.8813 28.6272L16.9187 31.8867ZM40.6792 13.0561C51.3225 8.95267 64.0069 6.85693 78.8 6.85693V0.856926C63.4598 0.856926 50.0109 3.02785 38.5208 7.45776L40.6792 13.0561ZM78.8 6.85693C85.9931 6.85693 89.2771 8.48095 90.5039 10.321L95.4962 6.99283C92.4562 2.4329 86.2736 0.856926 78.8 0.856926V6.85693ZM90.5373 10.3701C92.2423 12.8211 93.2 16.0491 93.2 20.2569H99.2C99.2 15.1314 98.0244 10.6261 95.4627 6.94373L90.5373 10.3701ZM93.2 20.2569V42.0569H99.2V20.2569H93.2ZM93.2 42.0569C93.2 48.3775 92.4892 53.7351 91.131 58.1803L96.8691 59.9336C98.4442 54.7787 99.2 48.803 99.2 42.0569H93.2ZM91.1094 58.254C89.8903 62.6428 87.9061 66.2759 85.1922 69.2258L89.6078 73.2881C93.0272 69.5713 95.443 65.0711 96.8906 59.8599L91.1094 58.254ZM86.4187 74.0919C89.3162 75.0949 90.8853 76.5571 91.6642 78.288L97.1358 75.8258C95.5147 72.2234 92.4171 69.819 88.3813 68.422L86.4187 74.0919ZM91.6642 78.288C92.6608 80.5026 93.2 83.137 93.2 86.2569H99.2C99.2 82.4435 98.5392 78.9446 97.1358 75.8258L91.6642 78.288ZM93.2 86.2569C93.2 100.09 90.164 111.189 84.3206 119.768L89.2794 123.146C95.9693 113.324 99.2 100.957 99.2 86.2569H93.2ZM84.3152 119.776C78.5665 128.274 70.3599 134.577 59.543 138.649L61.657 144.265C73.5068 139.803 82.7668 132.773 89.2849 123.138L84.3152 119.776ZM59.532 138.653C48.7509 142.761 35.9287 144.857 21 144.857V150.857C36.4713 150.857 50.0491 148.687 61.668 144.26L59.532 138.653ZM21 144.857C13.8069 144.857 10.5229 143.233 9.29615 141.393L4.30385 144.721C7.3438 149.281 13.5264 150.857 21 150.857V144.857ZM9.29615 141.393C7.54656 138.768 6.6 135.506 6.6 131.457H0.600002C0.600002 136.475 1.78678 140.945 4.30385 144.721L9.29615 141.393ZM6.6 131.457V109.657H0.600002V131.457H6.6ZM22.6 71.8569H51.8V65.8569H22.6V71.8569ZM51.8 71.8569C61.1428 71.8569 68.6397 70.0901 73.6918 65.9853L69.9082 61.3286C66.4269 64.1571 60.5906 65.8569 51.8 65.8569V71.8569ZM73.6918 65.9853C79.0759 61.6107 81.2 53.5006 81.2 43.0569H75.2C75.2 53.1466 73.0575 58.7698 69.9082 61.3286L73.6918 65.9853ZM81.2 43.0569V19.8569H75.2V43.0569H81.2ZM78.2 16.8569C65.2109 16.8569 54.3225 18.2738 45.6376 21.2155L47.5624 26.8984C55.4108 24.24 65.5891 22.8569 78.2 22.8569V16.8569ZM45.6235 21.2203C36.8426 24.2432 30.1726 29.6353 25.7892 37.3791L31.0108 40.3347C34.6274 33.9453 40.0908 29.4706 47.5765 26.8935L45.6235 21.2203ZM25.7682 37.4169C21.556 45.115 19.6 55.6937 19.6 68.8569H25.6C25.6 56.1535 27.5106 46.7322 31.0318 40.297L25.7682 37.4169ZM79.2 79.8569H50V85.8569H79.2V79.8569ZM50 79.8569C40.6091 79.8569 32.9097 81.643 27.2752 85.6024L30.7248 90.5115C34.957 87.5375 41.2576 85.8569 50 85.8569V79.8569ZM27.2752 85.6024C21.1127 89.9328 18.6 98.0947 18.6 108.657H24.6C24.6 98.6858 27.0207 93.1144 30.7248 90.5115L27.2752 85.6024ZM18.6 108.657V131.857H24.6V108.657H18.6ZM21.6 134.857C34.5943 134.857 45.6017 133.439 54.5353 130.507L52.6647 124.806C44.5316 127.475 34.2057 128.857 21.6 128.857V134.857ZM54.5353 130.507C63.6863 127.505 70.6966 122.145 75.3682 114.408L70.2318 111.306C66.3701 117.702 60.5804 122.209 52.6647 124.806L54.5353 130.507ZM75.3809 114.386C80.0303 106.54 82.2 95.9328 82.2 82.8569H76.2C76.2 95.3811 74.103 104.773 70.2191 111.328L75.3809 114.386ZM135.322 126.057L132.864 124.337L132.835 124.379L132.807 124.422L135.322 126.057ZM156.722 126.057L154.264 127.777L154.292 127.818L154.322 127.857L156.722 126.057ZM156.722 145.257L154.322 143.457L154.314 143.467L154.307 143.477L156.722 145.257ZM135.322 145.257L132.807 146.892L132.855 146.966L132.907 147.037L135.322 145.257ZM135.722 135.657C135.722 132.401 136.472 129.792 137.837 127.692L132.807 124.422C130.705 127.655 129.722 131.446 129.722 135.657H135.722ZM137.78 127.777C138.801 126.319 141.136 125.057 146.122 125.057V119.057C140.441 119.057 135.577 120.462 132.864 124.337L137.78 127.777ZM146.122 125.057C150.941 125.057 153.231 126.302 154.264 127.777L159.18 124.337C156.479 120.479 151.703 119.057 146.122 119.057V125.057ZM154.322 127.857C155.886 129.942 156.722 132.491 156.722 135.657H162.722C162.722 131.356 161.558 127.505 159.122 124.257L154.322 127.857ZM156.722 135.657C156.722 138.823 155.886 141.371 154.322 143.457L159.122 147.057C161.558 143.809 162.722 139.958 162.722 135.657H156.722ZM154.307 143.477C153.293 144.853 150.989 146.057 146.122 146.057V152.057C151.655 152.057 156.417 150.728 159.137 147.037L154.307 143.477ZM146.122 146.057C141.088 146.057 138.739 144.837 137.737 143.477L132.907 147.037C135.638 150.744 140.489 152.057 146.122 152.057V146.057ZM137.837 143.622C136.472 141.522 135.722 138.913 135.722 135.657H129.722C129.722 139.868 130.705 143.659 132.807 146.892L137.837 143.622Z" fill="#F8EDE2" mask="url(#path-1-outside-1_193_85)"/>
</svg>
