<svg width="167" height="152" viewBox="0 0 167 152" fill="none" xmlns="http://www.w3.org/2000/svg">
<mask id="path-1-outside-1_193_77" maskUnits="userSpaceOnUse" x="0" y="0.795898" width="167" height="152" fill="black">
<rect fill="white" y="0.795898" width="167" height="152"/>
<path d="M3.4 96.7959L25.2 3.79589C30.6667 3.79589 34.6 4.26256 37 5.19589C39.5333 5.99589 40.8 7.99589 40.8 11.1959C40.8 12.3959 40.6 13.9292 40.2 15.7959C38.3333 24.3292 36.4 32.6626 34.4 40.7959C32.4 48.7959 30.2 57.3292 27.8 66.3959C25.5333 75.3292 22.8667 85.4626 19.8 96.7959H69.8V43.7959C69.8 42.7292 70.2 41.7959 71 40.9959C71.8 40.1959 72.7333 39.7959 73.8 39.7959H83.6C84.6667 39.7959 85.6 40.1959 86.4 40.9959C87.3333 41.7959 87.8 42.7292 87.8 43.7959V96.7959H102.2C103 96.7959 103.667 97.1292 104.2 97.7959C104.867 98.3292 105.2 98.9959 105.2 99.7959V109.596C105.2 110.396 104.867 111.129 104.2 111.796C103.667 112.463 103 112.796 102.2 112.796H87.8V147.796H82C79.0667 147.796 76.2667 147.063 73.6 145.596C71.0667 143.996 69.8 140.729 69.8 135.796V112.796H17C13.2667 112.796 10.0667 111.529 7.4 108.996C4.73333 106.329 3.4 102.263 3.4 96.7959ZM136.722 135.596C136.722 131.863 137.589 128.663 139.322 125.996C141.189 123.329 144.789 121.996 150.122 121.996C155.322 121.996 158.855 123.329 160.722 125.996C162.722 128.663 163.722 131.863 163.722 135.596C163.722 139.329 162.722 142.529 160.722 145.196C158.855 147.729 155.322 148.996 150.122 148.996C144.789 148.996 141.189 147.729 139.322 145.196C137.589 142.529 136.722 139.329 136.722 135.596Z"/>
</mask>
<path d="M3.4 96.7959L0.479174 96.1112L0.4 96.449V96.7959H3.4ZM25.2 3.79589V0.795891H22.8219L22.2792 3.11123L25.2 3.79589ZM37 5.19588L35.9127 7.9919L36.0036 8.02726L36.0966 8.05663L37 5.19588ZM40.2 15.7959L43.1307 16.437L43.1334 16.4245L40.2 15.7959ZM34.4 40.7959L37.3105 41.5235L37.3132 41.5123L34.4 40.7959ZM27.8 66.3959L24.8999 65.6282L24.8959 65.6431L24.8921 65.6581L27.8 66.3959ZM19.8 96.7959L16.9041 96.0123L15.8804 99.7959H19.8V96.7959ZM69.8 96.7959V99.7959H72.8V96.7959H69.8ZM71 40.9959L68.8787 38.8746L68.8787 38.8746L71 40.9959ZM86.4 40.9959L84.2787 43.1172L84.3602 43.1987L84.4476 43.2737L86.4 40.9959ZM87.8 96.7959H84.8V99.7959H87.8V96.7959ZM104.2 97.7959L101.857 99.67L102.066 99.9303L102.326 100.139L104.2 97.7959ZM104.2 111.796L102.079 109.675L101.961 109.792L101.857 109.922L104.2 111.796ZM87.8 112.796V109.796H84.8V112.796H87.8ZM87.8 147.796V150.796H90.8V147.796H87.8ZM73.6 145.596L71.998 148.132L72.0747 148.181L72.1543 148.225L73.6 145.596ZM69.8 112.796H72.8V109.796H69.8V112.796ZM7.4 108.996L5.27868 111.117L5.30587 111.144L5.33375 111.171L7.4 108.996ZM6.32083 97.4806L28.1208 4.48056L22.2792 3.11123L0.479174 96.1112L6.32083 97.4806ZM25.2 6.79589C30.6178 6.79589 34.0688 7.27483 35.9127 7.9919L38.0873 2.39987C35.1312 1.25028 30.7155 0.795891 25.2 0.795891V6.79589ZM36.0966 8.05663C36.7764 8.27129 37.1073 8.57229 37.3155 8.90105C37.5554 9.27982 37.8 9.97027 37.8 11.1959H43.8C43.8 9.22152 43.4112 7.31197 42.3845 5.69074C41.326 4.01949 39.757 2.92049 37.9034 2.33514L36.0966 8.05663ZM37.8 11.1959C37.8 12.0985 37.645 13.4014 37.2666 15.1673L43.1334 16.4245C43.555 14.457 43.8 12.6933 43.8 11.1959H37.8ZM37.2693 15.1548C35.4079 23.664 33.4804 31.9723 31.4868 40.0795L37.3132 41.5123C39.3196 33.3529 41.2588 24.9944 43.1307 16.437L37.2693 15.1548ZM31.4896 40.0683C29.4933 48.0532 27.2968 56.5731 24.8999 65.6282L30.7001 67.1636C33.1032 58.0853 35.3067 49.5385 37.3104 41.5235L31.4896 40.0683ZM24.8921 65.6581C22.6302 74.5727 19.9677 84.6903 16.9041 96.0123L22.6959 97.5795C25.7656 86.2348 28.4364 76.0858 30.7079 67.1337L24.8921 65.6581ZM19.8 99.7959H69.8V93.7959H19.8V99.7959ZM72.8 96.7959V43.7959H66.8V96.7959H72.8ZM72.8 43.7959C72.8 43.5769 72.8461 43.3925 73.1213 43.1172L68.8787 38.8746C67.554 40.1993 66.8 41.8816 66.8 43.7959H72.8ZM73.1213 43.1172C73.3966 42.8419 73.581 42.7959 73.8 42.7959V36.7959C71.8857 36.7959 70.2034 37.5498 68.8787 38.8746L73.1213 43.1172ZM73.8 42.7959H83.6V36.7959H73.8V42.7959ZM83.6 42.7959C83.819 42.7959 84.0034 42.8419 84.2787 43.1172L88.5213 38.8746C87.1966 37.5498 85.5143 36.7959 83.6 36.7959V42.7959ZM84.4476 43.2737C84.6639 43.4591 84.7411 43.5863 84.7667 43.6375C84.787 43.6782 84.8 43.7176 84.8 43.7959H90.8C90.8 41.7152 89.838 39.9915 88.3524 38.7181L84.4476 43.2737ZM84.8 43.7959V96.7959H90.8V43.7959H84.8ZM87.8 99.7959H102.2V93.7959H87.8V99.7959ZM102.2 99.7959C102.19 99.7959 102.158 99.7948 102.11 99.7838C102.061 99.7726 102.009 99.7543 101.958 99.7292C101.851 99.6754 101.823 99.6264 101.857 99.67L106.543 95.9218C105.484 94.5985 103.98 93.7959 102.2 93.7959V99.7959ZM102.326 100.139C102.369 100.173 102.321 100.145 102.267 100.038C102.242 99.9872 102.223 99.9348 102.212 99.8858C102.201 99.8375 102.2 99.8054 102.2 99.7959H108.2C108.2 98.0164 107.397 96.5119 106.074 95.4533L102.326 100.139ZM102.2 99.7959V109.596H108.2V99.7959H102.2ZM102.2 109.596C102.2 109.586 102.201 109.568 102.206 109.546C102.211 109.524 102.217 109.51 102.219 109.504C102.224 109.493 102.2 109.553 102.079 109.675L106.321 113.917C107.443 112.796 108.2 111.332 108.2 109.596H102.2ZM101.857 109.922C101.823 109.965 101.851 109.916 101.958 109.863C102.009 109.837 102.061 109.819 102.11 109.808C102.158 109.797 102.19 109.796 102.2 109.796V115.796C103.98 115.796 105.484 114.993 106.543 113.67L101.857 109.922ZM102.2 109.796H87.8V115.796H102.2V109.796ZM84.8 112.796V147.796H90.8V112.796H84.8ZM87.8 144.796H82V150.796H87.8V144.796ZM82 144.796C79.5915 144.796 77.2868 144.2 75.0458 142.967L72.1543 148.225C75.2466 149.925 78.5418 150.796 82 150.796V144.796ZM75.202 143.059C73.9916 142.295 72.8 140.383 72.8 135.796H66.8C66.8 141.075 68.1418 145.697 71.998 148.132L75.202 143.059ZM72.8 135.796V112.796H66.8V135.796H72.8ZM69.8 109.796H17V115.796H69.8V109.796ZM17 109.796C14.0229 109.796 11.5661 108.816 9.46625 106.821L5.33375 111.171C8.56721 114.243 12.5105 115.796 17 115.796V109.796ZM9.52132 106.875C7.62806 104.981 6.4 101.825 6.4 96.7959H0.4C0.4 102.7 1.8386 107.677 5.27868 111.117L9.52132 106.875ZM139.322 125.996L136.864 124.276L136.835 124.318L136.807 124.361L139.322 125.996ZM160.722 125.996L158.264 127.716L158.292 127.757L158.322 127.796L160.722 125.996ZM160.722 145.196L158.322 143.396L158.314 143.406L158.307 143.416L160.722 145.196ZM139.322 145.196L136.807 146.831L136.855 146.905L136.907 146.975L139.322 145.196ZM139.722 135.596C139.722 132.34 140.472 129.731 141.837 127.631L136.807 124.361C134.705 127.594 133.722 131.385 133.722 135.596H139.722ZM141.78 127.716C142.801 126.258 145.136 124.996 150.122 124.996V118.996C144.441 118.996 139.577 120.401 136.864 124.276L141.78 127.716ZM150.122 124.996C154.941 124.996 157.231 126.241 158.264 127.716L163.18 124.276C160.479 120.418 155.703 118.996 150.122 118.996V124.996ZM158.322 127.796C159.886 129.881 160.722 132.43 160.722 135.596H166.722C166.722 131.295 165.558 127.444 163.122 124.196L158.322 127.796ZM160.722 135.596C160.722 138.762 159.886 141.31 158.322 143.396L163.122 146.996C165.558 143.748 166.722 139.897 166.722 135.596H160.722ZM158.307 143.416C157.293 144.792 154.989 145.996 150.122 145.996V151.996C155.655 151.996 160.417 150.667 163.137 146.975L158.307 143.416ZM150.122 145.996C145.088 145.996 142.739 144.776 141.737 143.416L136.907 146.975C139.638 150.683 144.489 151.996 150.122 151.996V145.996ZM141.837 143.561C140.472 141.46 139.722 138.852 139.722 135.596H133.722C133.722 139.807 134.705 143.598 136.807 146.831L141.837 143.561Z" fill="#F8EDE2" mask="url(#path-1-outside-1_193_77)"/>
</svg>
